<svg baseProfile="full" height="126.0" version="1.1" width="750" xmlns="http://www.w3.org/2000/svg" xmlns:ev="http://www.w3.org/2001/xml-events" xmlns:xlink="http://www.w3.org/1999/xlink"><defs><marker id="id1" markerHeight="10" markerWidth="10" orient="auto" refX="0" refY="3"><path d="M6,0 L6,7 L0,3 L6,0" fill="#FFD580" /></marker><marker id="id2" markerHeight="10" markerWidth="10" orient="auto" refX="6" refY="3"><path d="M0,0 L0,7 L6,3 L0,0" fill="#FFD580" /></marker><marker id="id3" markerHeight="10" markerWidth="10" orient="auto" refX="0" refY="3"><path d="M6,0 L6,7 L0,3 L6,0" fill="#91D1C2" /></marker><marker id="id4" markerHeight="10" markerWidth="10" orient="auto" refX="6" refY="3"><path d="M0,0 L0,7 L6,3 L0,0" fill="#91D1C2" /></marker><marker id="id5" markerHeight="10" markerWidth="10" orient="auto" refX="0" refY="3"><path d="M6,0 L6,7 L0,3 L6,0" fill="#C0C0FF" /></marker><marker id="id6" markerHeight="10" markerWidth="10" orient="auto" refX="6" refY="3"><path d="M0,0 L0,7 L6,3 L0,0" fill="#C0C0FF" /></marker></defs><rect fill="#FFD580" fill-opacity="0.15" height="126.0" width="227" x="63" y="0" /><line stroke="#FFD580" stroke-dasharray="5 5" stroke-width="0.5" x1="63" x2="63" y1="0" y2="90" /><line stroke="#FFD580" stroke-dasharray="5 5" stroke-width="0.5" x1="290" x2="290" y1="0" y2="90" /><line marker-end="url(#id2)" marker-start="url(#id1)" stroke="#FFD580" stroke-width="0.75" x1="63" x2="290" y1="10" y2="10" /><text fill="#FFD580" font-family="Helevetica" font-size="6pt" stroke="none" text-anchor="middle" x="176.5" y="8.5">Fundamentos</text><rect fill="#91D1C2" fill-opacity="0.15" height="126.0" width="170" x="290" y="0" /><line stroke="#91D1C2" stroke-dasharray="5 5" stroke-width="0.5" x1="290" x2="290" y1="0" y2="90" /><line stroke="#91D1C2" stroke-dasharray="5 5" stroke-width="0.5" x1="460" x2="460" y1="0" y2="90" /><line marker-end="url(#id4)" marker-start="url(#id3)" stroke="#91D1C2" stroke-width="0.75" x1="290" x2="460" y1="10" y2="10" /><text fill="#91D1C2" font-family="Helevetica" font-size="6pt" stroke="none" text-anchor="middle" x="375.0" y="8.5">Control y Algoritmos</text><rect fill="#C0C0FF" fill-opacity="0.15" height="126.0" width="228" x="460" y="0" /><line stroke="#C0C0FF" stroke-dasharray="5 5" stroke-width="0.5" x1="460" x2="460" y1="0" y2="90" /><line stroke="#C0C0FF" stroke-dasharray="5 5" stroke-width="0.5" x1="688" x2="688" y1="0" y2="90" /><line marker-end="url(#id6)" marker-start="url(#id5)" stroke="#C0C0FF" stroke-width="0.75" x1="460" x2="688" y1="10" y2="10" /><text fill="#C0C0FF" font-family="Helevetica" font-size="6pt" stroke="none" text-anchor="middle" x="574.0" y="8.5">Probabilístico y Aprendizaje</text><g transform="translate(0,90)"><line stroke="#000000" stroke-width="3" x1="0" x2="750" y1="0" y2="0" /><line stroke="#000000" stroke-width="2" x1="63" x2="63" y1="-5" y2="5" /><text fill="#C0C0C0" font-family="Helevetica" font-size="6pt" stroke="none" text-anchor="end" transform="rotate(180, 63, 0)" writing-mode="tb" x="63" y="-10">1920</text><line stroke="#000000" stroke-width="2" x1="688" x2="688" y1="-5" y2="5" /><text fill="#C0C0C0" font-family="Helevetica" font-size="6pt" stroke="none" text-anchor="end" transform="rotate(180, 688, 0)" writing-mode="tb" x="688" y="-10">2030</text><line stroke="#000000" stroke-width="2" x1="125" x2="125" y1="-5" y2="5" /><text fill="#C0C0C0" font-family="Helevetica" font-size="6pt" stroke="none" text-anchor="end" transform="rotate(180, 125, 0)" writing-mode="tb" x="125" y="-10">1931</text><line stroke="#000000" stroke-width="2" x1="188" x2="188" y1="-5" y2="5" /><text fill="#C0C0C0" font-family="Helevetica" font-size="6pt" stroke="none" text-anchor="end" transform="rotate(180, 188, 0)" writing-mode="tb" x="188" y="-10">1942</text><line stroke="#000000" stroke-width="2" x1="250" x2="250" y1="-5" y2="5" /><text fill="#C0C0C0" font-family="Helevetica" font-size="6pt" stroke="none" text-anchor="end" transform="rotate(180, 250, 0)" writing-mode="tb" x="250" y="-10">1953</text><line stroke="#000000" stroke-width="2" x1="313" x2="313" y1="-5" y2="5" /><text fill="#C0C0C0" font-family="Helevetica" font-size="6pt" stroke="none" text-anchor="end" transform="rotate(180, 313, 0)" writing-mode="tb" x="313" y="-10">1964</text><line stroke="#000000" stroke-width="2" x1="375" x2="375" y1="-5" y2="5" /><text fill="#C0C0C0" font-family="Helevetica" font-size="6pt" stroke="none" text-anchor="end" transform="rotate(180, 375, 0)" writing-mode="tb" x="375" y="-10">1975</text><line stroke="#000000" stroke-width="2" x1="438" x2="438" y1="-5" y2="5" /><text fill="#C0C0C0" font-family="Helevetica" font-size="6pt" stroke="none" text-anchor="end" transform="rotate(180, 438, 0)" writing-mode="tb" x="438" y="-10">1986</text><line stroke="#000000" stroke-width="2" x1="500" x2="500" y1="-5" y2="5" /><text fill="#C0C0C0" font-family="Helevetica" font-size="6pt" stroke="none" text-anchor="end" transform="rotate(180, 500, 0)" writing-mode="tb" x="500" y="-10">1997</text><line stroke="#000000" stroke-width="2" x1="563" x2="563" y1="-5" y2="5" /><text fill="#C0C0C0" font-family="Helevetica" font-size="6pt" stroke="none" text-anchor="end" transform="rotate(180, 563, 0)" writing-mode="tb" x="563" y="-10">2008</text><line stroke="#000000" stroke-width="2" x1="625" x2="625" y1="-5" y2="5" /><text fill="#C0C0C0" font-family="Helevetica" font-size="6pt" stroke="none" text-anchor="end" transform="rotate(180, 625, 0)" writing-mode="tb" x="625" y="-10">2019</text><path d="M63,0 L63,-15 L53,-15" fill="none" stroke="#DD0000" stroke-width="1" /><text fill="#DD0000" font-family="Helevetica" font-size="6pt" stroke="none" text-anchor="end" x="50" y="-13.5">R.U.R.</text><text fill="#000000" font-family="Helevetica" font-size="6pt" stroke="none" text-anchor="end" transform="rotate(180, 63, 0)" writing-mode="tb" x="63" y="-10">1920</text><circle cx="63" cy="0" fill="white" r="4" stroke="#DD0000" stroke-width="1" /><path d="M153,0 L153,-15 L143,-15" fill="none" stroke="#000000" stroke-width="1" /><text fill="#000000" font-family="Helevetica" font-size="6pt" stroke="none" text-anchor="end" x="140" y="-13.5">Máquina de Turing</text><text fill="#000000" font-family="Helevetica" font-size="6pt" stroke="none" text-anchor="end" transform="rotate(180, 153, 0)" writing-mode="tb" x="153" y="-10">1936</text><circle cx="153" cy="0" fill="white" r="4" stroke="#000000" stroke-width="1" /><path d="M193,0 L193,-25 L183,-25" fill="none" stroke="#000000" stroke-width="1" /><text fill="#000000" font-family="Helevetica" font-size="6pt" stroke="none" text-anchor="end" x="180" y="-23.5">Cibernética</text><text fill="#000000" font-family="Helevetica" font-size="6pt" stroke="none" text-anchor="end" transform="rotate(180, 193, 0)" writing-mode="tb" x="193" y="-10">1943</text><circle cx="193" cy="0" fill="white" r="4" stroke="#000000" stroke-width="1" /><path d="M222,0 L222,-35 L212,-35" fill="none" stroke="#000000" stroke-width="1" /><text fill="#000000" font-family="Helevetica" font-size="6pt" stroke="none" text-anchor="end" x="209" y="-33.5">Tortugas de Grey Walter</text><text fill="#000000" font-family="Helevetica" font-size="6pt" stroke="none" text-anchor="end" transform="rotate(180, 222, 0)" writing-mode="tb" x="222" y="-10">1948</text><circle cx="222" cy="0" fill="white" r="4" stroke="#000000" stroke-width="1" /><path d="M265,0 L265,-15 L255,-15" fill="none" stroke="#DD0000" stroke-width="1" /><text fill="#DD0000" font-family="Helevetica" font-size="6pt" stroke="none" text-anchor="end" x="252" y="-13.5">AI</text><text fill="#000000" font-family="Helevetica" font-size="6pt" stroke="none" text-anchor="end" transform="rotate(180, 265, 0)" writing-mode="tb" x="265" y="-10">1955</text><circle cx="265" cy="0" fill="white" r="4" stroke="#DD0000" stroke-width="1" /><path d="M324,0 L324,-15 L314,-15" fill="none" stroke="#000000" stroke-width="1" /><text fill="#000000" font-family="Helevetica" font-size="6pt" stroke="none" text-anchor="end" x="311" y="-13.5">Shakey</text><text fill="#000000" font-family="Helevetica" font-size="6pt" stroke="none" text-anchor="end" transform="rotate(180, 324, 0)" writing-mode="tb" x="324" y="-10">1966</text><circle cx="324" cy="0" fill="white" r="4" stroke="#000000" stroke-width="1" /><path d="M392,0 L392,-15 L382,-15" fill="none" stroke="#000000" stroke-width="1" /><text fill="#000000" font-family="Helevetica" font-size="6pt" stroke="none" text-anchor="end" x="379" y="-13.5">Stanford Cart</text><text fill="#000000" font-family="Helevetica" font-size="6pt" stroke="none" text-anchor="end" transform="rotate(180, 392, 0)" writing-mode="tb" x="392" y="-10">1978</text><circle cx="392" cy="0" fill="white" r="4" stroke="#000000" stroke-width="1" /><path d="M403,0 L403,-25 L393,-25" fill="none" stroke="#000000" stroke-width="1" /><text fill="#000000" font-family="Helevetica" font-size="6pt" stroke="none" text-anchor="end" x="390" y="-23.5">Robots Reactivos</text><text fill="#000000" font-family="Helevetica" font-size="6pt" stroke="none" text-anchor="end" transform="rotate(180, 403, 0)" writing-mode="tb" x="403" y="-10">1980</text><circle cx="403" cy="0" fill="white" r="4" stroke="#000000" stroke-width="1" /><path d="M438,0 L438,-35 L428,-35" fill="none" stroke="#000000" stroke-width="1" /><text fill="#000000" font-family="Helevetica" font-size="6pt" stroke="none" text-anchor="end" x="425" y="-33.5">Arquitectura de Subsunción</text><text fill="#000000" font-family="Helevetica" font-size="6pt" stroke="none" text-anchor="end" transform="rotate(180, 438, 0)" writing-mode="tb" x="438" y="-10">1986</text><circle cx="438" cy="0" fill="white" r="4" stroke="#000000" stroke-width="1" /><path d="M449,0 L449,-45 L439,-45" fill="none" stroke="#000000" stroke-width="1" /><text fill="#000000" font-family="Helevetica" font-size="6pt" stroke="none" text-anchor="end" x="436" y="-43.5">Rejillas de ocupación</text><text fill="#000000" font-family="Helevetica" font-size="6pt" stroke="none" text-anchor="end" transform="rotate(180, 449, 0)" writing-mode="tb" x="449" y="-10">1988</text><circle cx="449" cy="0" fill="white" r="4" stroke="#000000" stroke-width="1" /><path d="M500,0 L500,-55 L490,-55" fill="none" stroke="#000000" stroke-width="1" /><text fill="#000000" font-family="Helevetica" font-size="6pt" stroke="none" text-anchor="end" x="487" y="-53.5">Exploración</text><text fill="#000000" font-family="Helevetica" font-size="6pt" stroke="none" text-anchor="end" transform="rotate(180, 500, 0)" writing-mode="tb" x="500" y="-10">1997</text><circle cx="500" cy="0" fill="white" r="4" stroke="#000000" stroke-width="1" /><path d="M517,0 L517,-65 L507,-65" fill="none" stroke="#000000" stroke-width="1" /><text fill="#000000" font-family="Helevetica" font-size="6pt" stroke="none" text-anchor="end" x="504" y="-63.5">SLAM</text><text fill="#000000" font-family="Helevetica" font-size="6pt" stroke="none" text-anchor="end" transform="rotate(180, 517, 0)" writing-mode="tb" x="517" y="-10">2000</text><circle cx="517" cy="0" fill="white" r="4" stroke="#000000" stroke-width="1" /><path d="M577,0 L577,-15 L567,-15" fill="none" stroke="#DD0000" stroke-width="1" /><text fill="#DD0000" font-family="Helevetica" font-size="6pt" stroke="none" text-anchor="end" x="564" y="-13.5">VANT</text><text fill="#000000" font-family="Helevetica" font-size="6pt" stroke="none" text-anchor="end" transform="rotate(180, 577, 0)" writing-mode="tb" x="577" y="-10">2010</text><circle cx="577" cy="0" fill="white" r="4" stroke="#DD0000" stroke-width="1" /><path d="M594,0 L594,-25 L584,-25" fill="none" stroke="#000000" stroke-width="1" /><text fill="#000000" font-family="Helevetica" font-size="6pt" stroke="none" text-anchor="end" x="581" y="-23.5">OctoMap</text><text fill="#000000" font-family="Helevetica" font-size="6pt" stroke="none" text-anchor="end" transform="rotate(180, 594, 0)" writing-mode="tb" x="594" y="-10">2013</text><circle cx="594" cy="0" fill="white" r="4" stroke="#000000" stroke-width="1" /><path d="M617,0 L617,-35 L607,-35" fill="none" stroke="#000000" stroke-width="1" /><text fill="#000000" font-family="Helevetica" font-size="6pt" stroke="none" text-anchor="end" x="604" y="-33.5">SANT</text><text fill="#000000" font-family="Helevetica" font-size="6pt" stroke="none" text-anchor="end" transform="rotate(180, 617, 0)" writing-mode="tb" x="617" y="-10">2017</text><circle cx="617" cy="0" fill="white" r="4" stroke="#000000" stroke-width="1" /><path d="M653,0 L653,-45 L643,-45" fill="none" stroke="#000000" stroke-width="1" /><text fill="#000000" font-family="Helevetica" font-size="6pt" stroke="none" text-anchor="end" x="640" y="-43.5">Humanoides RL</text><text fill="#000000" font-family="Helevetica" font-size="6pt" stroke="none" text-anchor="end" transform="rotate(180, 653, 0)" writing-mode="tb" x="653" y="-10">2024</text><circle cx="653" cy="0" fill="white" r="4" stroke="#000000" stroke-width="1" /><text fill="#000000" font-family="Helevetica" font-size="6pt" stroke="none" text-anchor="end" transform="rotate(180, 63, 0)" writing-mode="tb" x="63" y="-10">1920</text><text fill="#000000" font-family="Helevetica" font-size="6pt" stroke="none" text-anchor="end" transform="rotate(180, 290, 0)" writing-mode="tb" x="290" y="-10">1960</text><text fill="#000000" font-family="Helevetica" font-size="6pt" stroke="none" text-anchor="end" transform="rotate(180, 290, 0)" writing-mode="tb" x="290" y="-10">1960</text><text fill="#000000" font-family="Helevetica" font-size="6pt" stroke="none" text-anchor="end" transform="rotate(180, 460, 0)" writing-mode="tb" x="460" y="-10">1990</text><text fill="#000000" font-family="Helevetica" font-size="6pt" stroke="none" text-anchor="end" transform="rotate(180, 460, 0)" writing-mode="tb" x="460" y="-10">1990</text><text fill="#000000" font-family="Helevetica" font-size="6pt" stroke="none" text-anchor="end" transform="rotate(180, 688, 0)" writing-mode="tb" x="688" y="-10">2030</text></g></svg>
